PathFileType	4	(X/Y/Z)	D:\TRACE\v60_Jaco2_6-2-23\BothDRS_Motion2_1-platform.trc
DataRate	CameraRate	NumFrames	NumMarkers	Units	OrigDataRate	OrigDataStartFrame	OrigNumFrames
100.00	100.00	      60	5	mm	100.00	5626	      7500
Frame#	Time	Left_Front			Right_Front			Left_Aft			Right_Aft			Post			
		X1	Y1	Z1	X2	Y2	Z2	X3	Y3	Z3	X4	Y4	Z4	X5	Y5	Z5	

5626	56.250	-752.86829	45.21235	-629.70007	817.10870	46.29200	-634.49310	-661.16766	-17.57704	503.81909	780.30096	-19.62760	513.46173	33.16800	1359.28015	-880.28430	
5627	56.260	-752.24683	46.45176	-629.23267	817.51959	47.52454	-634.41315	-660.59155	-18.54549	504.16370	780.60333	-20.50353	513.50055	33.62292	1361.09143	-876.91229	
5628	56.270	-751.57147	47.40064	-628.49597	818.08313	48.89907	-633.89917	-660.11572	-19.22017	504.39035	781.66663	-21.29264	513.72717	34.13977	1363.01233	-874.24243	
5629	56.280	-751.45959	48.92407	-628.67468	818.34442	49.92486	-633.75079	-659.73181	-20.11388	504.43979	782.50958	-21.95432	513.99225	34.63569	1364.66675	-871.88922	
5630	56.290	-751.38672	49.74110	-628.28931	818.83826	51.17080	-633.29395	-659.34442	-21.11850	504.89816	782.61768	-22.58072	514.29462	35.25055	1366.22192	-869.78644	
5631	56.300	-750.87286	51.02887	-627.88641	818.88342	52.08178	-632.99377	-659.11786	-21.93503	505.10132	782.19720	-23.99509	514.11517	35.40867	1367.58594	-868.03156	
5632	56.310	-750.53864	52.41146	-627.49683	819.45935	53.58677	-632.41614	-658.55640	-23.01996	505.26785	782.94971	-25.03334	514.61407	36.12696	1369.38745	-865.87854	
5633	56.320	-750.29767	53.73779	-627.03040	819.62817	54.25020	-632.20190	-658.51874	-23.66701	505.62555	783.56348	-25.46126	515.06702	36.32815	1371.19556	-863.52527	
5634	56.330	-750.28723	54.40245	-626.59357	819.89746	55.41973	-631.64709	-658.38654	-24.53512	505.89127	783.70135	-26.20353	515.40845	36.29667	1372.92334	-861.03070	
5635	56.340	-749.99603	55.46233	-626.24585	820.00854	56.86533	-631.49042	-658.13416	-25.43348	506.05795	784.09143	-27.41341	516.00476	36.37992	1374.32629	-858.68567	
5636	56.350	-749.92389	56.70854	-625.98663	820.02185	57.85297	-631.05933	-658.24243	-26.07493	506.24451	783.98468	-28.23322	516.17230	36.54269	1375.57056	-855.35333	
5637	56.360	-749.88159	57.96359	-625.62708	820.04919	58.60329	-630.70575	-658.20441	-26.85135	506.54657	783.93311	-28.69363	516.49084	36.60229	1376.91040	-852.31360	
5638	56.370	-749.80115	58.88905	-625.29913	820.01422	59.71887	-630.50775	-657.91870	-27.72395	506.83102	784.32056	-29.40548	516.68701	36.46561	1378.08887	-848.73120	
5639	56.380	-749.88855	59.48092	-624.88489	820.20557	60.55577	-630.01666	-658.12903	-27.91605	506.65796	784.26880	-30.00443	516.56805	36.64167	1379.27917	-845.63190	
5640	56.390	-750.03113	60.15908	-624.58490	819.94806	61.33105	-629.87134	-658.20703	-28.52784	506.68164	784.07251	-30.71483	516.64624	35.91331	1380.07373	-843.23486	
5641	56.400	-750.07642	61.02424	-624.60083	820.11340	62.26873	-629.72815	-658.15771	-29.37943	506.91666	783.51898	-31.41602	517.06000	36.32061	1381.33325	-841.00800	
5642	56.410	-750.13452	62.12282	-624.26752	819.95142	63.01691	-629.38562	-658.16632	-29.94272	507.08908	783.72491	-32.06176	517.54108	36.15972	1382.36267	-839.75677	
5643	56.420	-750.25830	63.03209	-623.83374	819.58472	63.75383	-629.12073	-658.37976	-30.42095	507.17014	783.54755	-32.28857	517.77313	36.48457	1383.63684	-838.76941	
5644	56.430	-750.57391	63.99701	-623.78717	819.23627	64.57521	-628.77118	-658.70990	-30.96469	507.30676	783.72052	-33.18914	517.55353	36.09416	1385.02148	-838.25928	
5645	56.440	-750.92603	64.61322	-623.45526	819.20123	65.60582	-628.40314	-658.81696	-31.31573	507.44418	783.46741	-33.66214	517.57080	35.80164	1386.10876	-837.77814	
5646	56.450	-751.26056	65.47008	-623.35406	818.81500	66.31764	-628.23615	-659.45563	-32.26355	507.66739	783.06226	-34.54953	517.66248	35.87305	1386.99573	-836.60022	
5647	56.460	-751.52740	66.10358	-623.18195	818.54376	66.79355	-628.07788	-659.71515	-32.85091	507.98788	782.79681	-35.14735	517.81842	35.42193	1387.88879	-835.46277	
5648	56.470	-751.75262	66.67525	-622.92096	818.18188	67.26521	-627.93475	-659.91412	-33.02464	508.01788	781.82416	-35.16306	517.80853	35.35484	1388.78540	-833.55505	
5649	56.480	-752.28088	67.30933	-622.31354	818.03546	67.97663	-627.55237	-660.39685	-33.31636	508.17545	781.32880	-35.52422	518.03540	34.46759	1389.81921	-831.74042	
5650	56.490	-752.53357	67.60497	-622.02759	817.61438	68.65612	-627.22852	-660.82990	-33.73023	508.28812	781.57648	-36.14984	518.27515	34.48259	1390.06897	-829.32507	
5651	56.500	-752.98096	68.20612	-621.89703	817.19446	69.17094	-627.25513	-661.22363	-34.04795	508.36649	781.22150	-36.66848	518.22498	34.10242	1390.63989	-826.67004	
5652	56.510	-753.20886	68.62538	-621.79309	816.70758	69.66985	-627.14276	-661.19208	-34.89243	508.87042	780.86090	-37.04090	518.52197	33.08853	1391.14441	-824.46338	
5653	56.520	-753.58850	69.14108	-621.91388	816.25787	70.09744	-626.98816	-661.88678	-35.29021	508.25003	780.44940	-37.29893	518.09674	32.93172	1391.52502	-822.44635	
5654	56.530	-754.21362	69.73118	-621.73163	815.63525	70.48152	-626.83600	-662.38116	-35.47471	508.35876	779.19031	-37.46518	518.46973	32.33244	1392.30603	-821.65906	
5655	56.540	-754.78125	70.25853	-621.66437	815.18585	70.82447	-626.71436	-662.97028	-35.55502	508.49829	779.10547	-37.79801	518.72766	32.09699	1392.80566	-820.91028	
5656	56.550	-755.59155	71.03783	-621.59290	814.79028	71.24310	-626.51666	-663.44318	-35.74610	508.49103	778.88220	-38.28464	518.49872	31.53501	1393.33826	-820.82190	
5657	56.560	-755.86945	70.99524	-621.42114	814.27795	71.53036	-626.43805	-663.99591	-36.08854	508.71570	778.56635	-38.75583	518.77234	31.11856	1393.70752	-821.07825	
5658	56.570	-756.07117	71.18796	-621.09674	813.85547	71.74451	-626.27466	-664.07794	-36.28440	508.77408	778.25891	-38.53682	518.84546	30.45886	1394.23157	-821.44794	
5659	56.580	-756.65247	71.50331	-621.17053	813.27728	71.97989	-626.12781	-664.89233	-36.72688	508.89093	777.44556	-38.94694	518.68256	29.99146	1394.96423	-821.44916	
5660	56.590	-757.18787	71.81293	-621.00781	812.69800	72.31996	-626.01257	-665.46313	-36.77617	508.84247	776.40253	-39.00328	518.97894	29.62756	1395.37659	-821.23077	
5661	56.600	-757.99078	71.99587	-620.94965	812.26624	72.49495	-625.75940	-665.89630	-36.87477	508.94586	776.03503	-39.19128	519.06409	29.09326	1395.43335	-820.58063	
5662	56.610	-758.69470	72.00127	-620.91821	811.57306	72.64723	-625.87805	-666.63977	-37.06915	508.97253	775.70844	-39.42029	518.96094	28.44350	1395.53406	-819.77441	
5663	56.620	-759.25391	71.87427	-620.82117	810.90692	72.80973	-625.82336	-667.36945	-37.02641	509.22516	774.91278	-39.77760	519.10944	27.39279	1395.65613	-818.29132	
5664	56.630	-759.76978	72.05003	-620.96295	810.32312	73.00362	-625.91180	-667.77869	-37.14896	509.16864	774.39233	-39.65126	518.88898	27.18458	1395.69385	-817.48419	
5665	56.640	-760.30243	71.99013	-620.79352	809.64453	73.12291	-625.96936	-668.48120	-37.11382	509.07516	773.50195	-39.31234	519.21503	26.40549	1395.64221	-816.32153	
5666	56.650	-760.83557	72.10176	-620.84058	809.17419	72.97681	-625.90399	-669.16187	-37.00062	508.95096	773.32477	-39.42822	519.17242	25.87809	1395.51575	-816.15839	
5667	56.660	-761.81976	72.19100	-620.71777	808.44952	72.67209	-625.82532	-669.81323	-36.87772	508.90485	772.61389	-39.56633	518.99164	24.94226	1395.45972	-816.50183	
5668	56.670	-762.72192	71.85352	-620.73322	807.48914	72.74454	-625.83179	-670.45746	-36.93504	508.89014	771.76782	-39.48632	519.09857	24.18844	1395.40051	-817.21936	
5669	56.680	-763.27893	71.87511	-620.97760	806.68433	72.75424	-626.03638	-671.35791	-36.95335	508.91492	771.17279	-39.67080	519.13757	23.82227	1395.28735	-817.82886	
5670	56.690	-763.95117	71.80663	-620.89520	806.10956	72.52017	-626.04187	-671.79553	-36.82225	508.98184	770.39679	-39.53954	519.48584	22.72660	1395.34949	-819.23297	
5671	56.700	-764.50201	71.84203	-620.91040	805.61969	72.54721	-625.93652	-672.31244	-36.87718	509.04105	769.22229	-39.23925	519.44073	22.42557	1395.16284	-820.02124	
5672	56.710	-765.41412	71.84774	-620.84106	804.70490	72.42690	-626.02185	-673.17542	-36.98001	508.91681	768.81433	-39.25959	518.97937	21.56515	1395.02869	-820.92114	
5673	56.720	-766.22101	71.30931	-620.97327	803.85168	72.17106	-626.03644	-674.10846	-36.36163	508.81964	768.25232	-39.16985	518.85736	20.94124	1394.75720	-821.09943	
5674	56.730	-767.07056	71.22253	-621.22882	803.11469	71.71854	-626.37714	-674.90540	-36.05544	508.85043	767.50903	-39.04808	518.84137	20.18175	1394.29260	-821.38666	
5675	56.740	-767.53088	70.86950	-621.45392	802.36658	71.50014	-626.34772	-676.12939	-35.85577	508.70209	766.01892	-38.58096	519.02948	19.02803	1393.82813	-821.95471	
5676	56.750	-768.46912	70.24263	-621.32593	801.49988	71.25929	-626.32465	-676.89917	-35.52383	508.75143	765.64246	-38.22850	518.93097	17.94270	1393.44763	-821.86127	
5677	56.760	-769.48969	70.02581	-621.26428	800.45178	70.74971	-626.54126	-677.44843	-35.50306	508.76746	764.90906	-37.08346	518.47333	17.22319	1392.84729	-821.96973	
5678	56.770	-770.37787	69.58212	-621.62152	799.63763	70.41819	-626.77466	-678.41913	-35.24043	508.77649	764.07428	-37.50276	518.73895	16.62390	1392.38477	-822.41162	
5679	56.780	-771.22150	68.94521	-621.85425	799.04028	70.16637	-626.87640	-679.35431	-34.62341	508.45343	763.34680	-37.06333	518.52686	15.61397	1391.62097	-823.55017	
5680	56.790	-771.86316	68.44451	-621.74799	797.97974	69.65016	-626.93011	-680.79675	-33.72369	508.69406	761.89642	-36.62387	518.93030	14.59085	1391.00928	-824.91528	
5681	56.800	-773.00525	67.98729	-621.92383	796.99658	69.00689	-627.13464	-681.52472	-33.72523	508.68433	761.07227	-36.55482	517.95984	13.63424	1390.47827	-826.74146	
5682	56.810	-773.87579	67.72472	-622.42035	796.25836	68.51894	-627.21252	-682.45294	-33.35264	508.67627	760.30487	-36.07270	517.78644	13.30910	1389.59265	-828.46484	
5683	56.820	-774.81775	67.16797	-622.40991	795.37158	67.82146	-627.38000	-683.16193	-33.03030	508.46762	759.15375	-35.81682	517.65332	12.49795	1389.16467	-830.39270	
5684	56.830	-775.58429	66.64848	-622.51300	794.26868	67.16927	-627.69427	-684.34216	-32.26808	508.39456	758.27875	-35.06873	517.59412	11.38934	1388.20117	-832.36566	
5685	56.840	-776.64453	65.92151	-622.70496	793.40240	66.78561	-628.01709	-685.13110	-32.14946	508.25058	757.63953	-34.74096	517.49243	10.45173	1387.55408	-833.97003	
